<?xml version="1.0" encoding="utf-8" standalone="no"?>
<!DOCTYPE svg PUBLIC "-//W3C//DTD SVG 1.1//EN"
  "http://www.w3.org/Graphics/SVG/1.1/DTD/svg11.dtd">
<svg xmlns:xlink="http://www.w3.org/1999/xlink" width="432pt" height="288pt" viewBox="0 0 432 288" xmlns="http://www.w3.org/2000/svg" version="1.1">
 <metadata>
  <rdf:RDF xmlns:dc="http://purl.org/dc/elements/1.1/" xmlns:cc="http://creativecommons.org/ns#" xmlns:rdf="http://www.w3.org/1999/02/22-rdf-syntax-ns#">
   <cc:Work>
    <dc:type rdf:resource="http://purl.org/dc/dcmitype/StillImage"/>
    <dc:date>2022-03-16T14:47:49.252513</dc:date>
    <dc:format>image/svg+xml</dc:format>
    <dc:creator>
     <cc:Agent>
      <dc:title>Matplotlib v3.5.1, https://matplotlib.org/</dc:title>
     </cc:Agent>
    </dc:creator>
   </cc:Work>
  </rdf:RDF>
 </metadata>
 <defs>
  <style type="text/css">*{stroke-linejoin: round; stroke-linecap: butt}</style>
 </defs>
 <g id="figure_1">
  <g id="patch_1">
   <path d="M 0 288 
L 432 288 
L 432 0 
L 0 0 
z
" style="fill: #161923"/>
  </g>
  <g id="axes_1">
   <g id="patch_2">
    <path d="M 48.520423 242.548665 
L 419.04 242.548665 
L 419.04 12.96 
L 48.520423 12.96 
z
" style="fill: #161923"/>
   </g>
   <g id="matplotlib.axis_1">
    <g id="xtick_1">
     <g id="line2d_1">
      <defs>
       <path id="ma91bf762f2" d="M 0 0 
L 0 -3.5 
" style="stroke: #bcbdd0"/>
      </defs>
      <g>
       <use xlink:href="#ma91bf762f2" x="48.520423" y="242.548665" style="fill: #bcbdd0; stroke: #bcbdd0"/>
      </g>
     </g>
     <g id="text_1">
      <!-- $0$ -->
      <g style="fill: #bcbdd0" transform="translate(45.593928 254.350845)scale(0.12 -0.12)">
       <defs>
        <path id="CMSS17-30" d="M 2758 2073 
C 2758 2439 2752 3120 2490 3647 
C 2227 4153 1805 4288 1504 4288 
C 1069 4288 698 4031 506 3621 
C 301 3191 243 2748 243 2073 
C 243 1611 262 1046 493 551 
C 755 6 1197 -128 1498 -128 
C 1894 -128 2278 83 2496 525 
C 2720 988 2758 1495 2758 2073 
z
M 1498 262 
C 1011 262 864 821 819 1007 
C 742 1328 730 1636 730 2144 
C 730 2542 730 2992 851 3345 
C 998 3756 1254 3897 1498 3897 
C 1971 3897 2125 3422 2176 3255 
C 2272 2915 2272 2516 2272 2144 
C 2272 1546 2272 262 1498 262 
z
" transform="scale(0.015625)"/>
       </defs>
       <use xlink:href="#CMSS17-30" transform="scale(0.996264)"/>
      </g>
     </g>
    </g>
    <g id="xtick_2">
     <g id="line2d_2">
      <g>
       <use xlink:href="#ma91bf762f2" x="141.150317" y="242.548665" style="fill: #bcbdd0; stroke: #bcbdd0"/>
      </g>
     </g>
     <g id="text_2">
      <!-- $T-P-\frac{D}{2}$ -->
      <g style="fill: #bcbdd0" transform="translate(113.574345 256.290592)scale(0.12 -0.12)">
       <defs>
        <path id="CMSSI17-54" d="M 3168 3987 
L 3699 3987 
C 3776 3987 3853 3980 3930 3980 
L 4730 3980 
L 4819 4396 
L 1158 4396 
L 1069 3980 
L 1869 3980 
C 1946 3980 2022 3987 2099 3987 
L 2630 3987 
L 1779 0 
L 2317 0 
L 3168 3987 
z
" transform="scale(0.015625)"/>
        <path id="CMSY10-0" d="M 4218 1472 
C 4326 1472 4442 1472 4442 1600 
C 4442 1728 4326 1728 4218 1728 
L 755 1728 
C 646 1728 531 1728 531 1600 
C 531 1472 646 1472 755 1472 
L 4218 1472 
z
" transform="scale(0.015625)"/>
        <path id="CMSSI17-50" d="M 1498 1856 
L 2502 1856 
C 3373 1856 4198 2617 4198 3378 
C 4198 3912 3782 4416 3008 4416 
L 1517 4416 
L 570 0 
L 1107 0 
L 1498 1856 
z
M 1965 4057 
L 2797 4057 
C 3405 4057 3686 3743 3686 3340 
C 3686 2856 3270 2227 2400 2227 
L 1568 2227 
L 1965 4057 
z
" transform="scale(0.015625)"/>
        <path id="CMSSI17-44" d="M 1517 4416 
L 570 0 
L 2150 0 
C 3334 0 4525 1286 4525 2741 
C 4525 3714 3955 4416 3091 4416 
L 1517 4416 
z
M 1965 4057 
L 2867 4057 
C 3552 4057 4000 3561 4000 2735 
C 4000 1540 3181 358 2080 358 
L 1171 358 
L 1965 4057 
z
" transform="scale(0.015625)"/>
        <path id="CMSS17-32" d="M 1651 1353 
C 1830 1538 2099 1761 2285 1984 
C 2464 2201 2701 2507 2701 2953 
C 2701 3655 2227 4288 1421 4288 
C 787 4288 422 3891 250 3272 
L 499 2928 
C 640 3508 838 3878 1338 3878 
C 1888 3878 2195 3431 2195 2940 
C 2195 2354 1747 1901 1408 1563 
C 1030 1187 659 805 301 409 
L 301 0 
L 2701 0 
L 2701 435 
L 1613 435 
C 1536 435 1459 428 1382 428 
L 742 428 
L 742 435 
L 1651 1353 
z
" transform="scale(0.015625)"/>
       </defs>
       <use xlink:href="#CMSSI17-54" transform="scale(0.996264)"/>
       <use xlink:href="#CMSY10-0" transform="translate(99.363015 0)scale(0.996264)"/>
       <use xlink:href="#CMSSI17-50" transform="translate(198.98969 0)scale(0.996264)"/>
       <use xlink:href="#CMSY10-0" transform="translate(289.291302 0)scale(0.996264)"/>
       <use xlink:href="#CMSSI17-44" transform="translate(390.11349 39.226102)scale(0.697382)"/>
       <use xlink:href="#CMSS17-32" transform="translate(400.050181 -34.355253)scale(0.697382)"/>
       <path d="M 390.11349 22.914133 
L 442.777238 22.914133 
L 442.777238 26.899083 
L 390.11349 26.899083 
L 390.11349 22.914133 
z
"/>
      </g>
     </g>
    </g>
    <g id="xtick_3">
     <g id="line2d_3">
      <g>
       <use xlink:href="#ma91bf762f2" x="218.341896" y="242.548665" style="fill: #bcbdd0; stroke: #bcbdd0"/>
      </g>
     </g>
     <g id="text_3">
      <!-- $T-P$ -->
      <g style="fill: #bcbdd0" transform="translate(202.520922 254.350845)scale(0.12 -0.12)">
       <use xlink:href="#CMSSI17-54" transform="scale(0.996264)"/>
       <use xlink:href="#CMSY10-0" transform="translate(99.363015 0)scale(0.996264)"/>
       <use xlink:href="#CMSSI17-50" transform="translate(198.98969 0)scale(0.996264)"/>
      </g>
     </g>
    </g>
    <g id="xtick_4">
     <g id="line2d_4">
      <g>
       <use xlink:href="#ma91bf762f2" x="295.533474" y="242.548665" style="fill: #bcbdd0; stroke: #bcbdd0"/>
      </g>
     </g>
     <g id="text_4">
      <!-- $T-P+\frac{D}{2}$ -->
      <g style="fill: #bcbdd0" transform="translate(268.054421 256.290592)scale(0.12 -0.12)">
       <defs>
        <path id="CMSS17-2b" d="M 2451 1472 
L 4141 1472 
C 4230 1472 4339 1472 4339 1580 
C 4339 1696 4237 1696 4141 1696 
L 2451 1696 
L 2451 3385 
C 2451 3475 2451 3584 2342 3584 
C 2227 3584 2227 3481 2227 3385 
L 2227 1696 
L 531 1696 
C 442 1696 333 1696 333 1587 
C 333 1472 435 1472 531 1472 
L 2227 1472 
L 2227 -194 
C 2227 -282 2227 -391 2336 -391 
C 2451 -391 2451 -289 2451 -194 
L 2451 1472 
z
" transform="scale(0.015625)"/>
       </defs>
       <use xlink:href="#CMSSI17-54" transform="scale(0.996264)"/>
       <use xlink:href="#CMSY10-0" transform="translate(99.363015 0)scale(0.996264)"/>
       <use xlink:href="#CMSSI17-50" transform="translate(198.98969 0)scale(0.996264)"/>
       <use xlink:href="#CMSS17-2b" transform="translate(289.291302 0)scale(0.996264)"/>
       <use xlink:href="#CMSSI17-44" transform="translate(385.493958 39.226102)scale(0.697382)"/>
       <use xlink:href="#CMSS17-32" transform="translate(395.430648 -34.355253)scale(0.697382)"/>
       <path d="M 385.493958 22.914133 
L 438.157705 22.914133 
L 438.157705 26.899083 
L 385.493958 26.899083 
L 385.493958 22.914133 
z
"/>
      </g>
     </g>
    </g>
    <g id="xtick_5">
     <g id="line2d_5">
      <g>
       <use xlink:href="#ma91bf762f2" x="357.286737" y="242.548665" style="fill: #bcbdd0; stroke: #bcbdd0"/>
      </g>
     </g>
     <g id="text_5">
      <!-- $T$ -->
      <g style="fill: #bcbdd0" transform="translate(353.29481 254.350845)scale(0.12 -0.12)">
       <use xlink:href="#CMSSI17-54" transform="scale(0.996264)"/>
      </g>
     </g>
    </g>
    <g id="text_6">
     <!-- Time -->
     <g style="fill: #bcbdd0" transform="translate(221.18178 272.715404)scale(0.12 -0.12)">
      <defs>
       <path id="CMSS17-54" d="M 2317 3987 
L 2848 3987 
C 2925 3987 3002 3980 3078 3980 
L 3878 3980 
L 3878 4396 
L 218 4396 
L 218 3980 
L 1018 3980 
C 1094 3980 1171 3987 1248 3987 
L 1779 3987 
L 1779 0 
L 2317 0 
L 2317 3987 
z
" transform="scale(0.015625)"/>
       <path id="CMSS17-69" d="M 979 4224 
L 442 4224 
L 442 3686 
L 979 3686 
L 979 4224 
z
M 947 2752 
L 474 2752 
L 474 0 
L 947 0 
L 947 2752 
z
" transform="scale(0.015625)"/>
       <path id="CMSS17-6d" d="M 4288 1878 
C 4288 2309 4179 2816 3462 2816 
C 2982 2816 2694 2515 2566 2328 
C 2451 2668 2182 2816 1798 2816 
C 1363 2816 1088 2566 941 2386 
L 941 2783 
L 474 2783 
L 474 0 
L 960 0 
L 960 1556 
C 960 1936 1101 2425 1555 2425 
C 2138 2425 2138 2013 2138 1826 
L 2138 0 
L 2624 0 
L 2624 1556 
C 2624 1936 2765 2425 3219 2425 
C 3802 2425 3802 2013 3802 1826 
L 3802 0 
L 4288 0 
L 4288 1878 
z
" transform="scale(0.015625)"/>
       <path id="CMSS17-65" d="M 2502 1375 
C 2502 1587 2490 2001 2285 2347 
C 2061 2713 1696 2816 1421 2816 
C 755 2816 192 2184 192 1363 
C 192 579 774 -64 1510 -64 
C 1798 -64 2150 19 2470 249 
C 2470 275 2458 414 2451 421 
C 2451 433 2432 629 2432 655 
C 2125 408 1773 326 1517 326 
C 1107 326 666 667 646 1375 
L 2502 1375 
z
M 698 1728 
C 781 2086 1062 2425 1421 2425 
C 1517 2425 1965 2412 2080 1728 
L 698 1728 
z
" transform="scale(0.015625)"/>
      </defs>
      <use xlink:href="#CMSS17-54" transform="scale(0.996264)"/>
      <use xlink:href="#CMSS17-69" transform="translate(63.819454 0)scale(0.996264)"/>
      <use xlink:href="#CMSS17-6d" transform="translate(86.000177 0)scale(0.996264)"/>
      <use xlink:href="#CMSS17-65" transform="translate(160.229431 0)scale(0.996264)"/>
     </g>
    </g>
   </g>
   <g id="matplotlib.axis_2">
    <g id="ytick_1">
     <g id="line2d_6">
      <defs>
       <path id="mbf88fb1ccb" d="M 0 0 
L 3.5 0 
" style="stroke: #bcbdd0"/>
      </defs>
      <g>
       <use xlink:href="#mbf88fb1ccb" x="48.520423" y="242.548665" style="fill: #bcbdd0; stroke: #bcbdd0"/>
      </g>
     </g>
     <g id="text_7">
      <!-- $-\frac{V}{2}$ -->
      <g style="fill: #bcbdd0" transform="translate(27.586776 247.669629)scale(0.12 -0.12)">
       <defs>
        <path id="CMSSI17-56" d="M 4851 4416 
L 4358 4416 
L 3053 2169 
L 2822 1756 
C 2586 1342 2253 757 2138 490 
L 2131 490 
C 2118 904 1958 1953 1952 2017 
L 1594 4416 
L 1030 4416 
L 1715 0 
L 2278 0 
L 4851 4416 
z
" transform="scale(0.015625)"/>
       </defs>
       <use xlink:href="#CMSY10-0" transform="scale(0.996264)"/>
       <use xlink:href="#CMSSI17-56" transform="translate(78.682981 39.226102)scale(0.697382)"/>
       <use xlink:href="#CMSS17-32" transform="translate(89.6663 -34.355253)scale(0.697382)"/>
       <path d="M 78.682981 22.914133 
L 133.439999 22.914133 
L 133.439999 26.899083 
L 78.682981 26.899083 
L 78.682981 22.914133 
z
"/>
      </g>
     </g>
    </g>
    <g id="ytick_2">
     <g id="line2d_7">
      <g>
       <use xlink:href="#mbf88fb1ccb" x="48.520423" y="156.452916" style="fill: #bcbdd0; stroke: #bcbdd0"/>
      </g>
     </g>
     <g id="text_8">
      <!-- $0$ -->
      <g style="fill: #bcbdd0" transform="translate(39.167433 160.604006)scale(0.12 -0.12)">
       <use xlink:href="#CMSS17-30" transform="scale(0.996264)"/>
      </g>
     </g>
    </g>
    <g id="ytick_3">
     <g id="line2d_8">
      <g>
       <use xlink:href="#mbf88fb1ccb" x="48.520423" y="70.357166" style="fill: #bcbdd0; stroke: #bcbdd0"/>
      </g>
     </g>
     <g id="text_9">
      <!-- $\frac{V}{2}$ -->
      <g style="fill: #bcbdd0" transform="translate(38.080779 75.47813)scale(0.12 -0.12)">
       <use xlink:href="#CMSSI17-56" transform="translate(0 39.226102)scale(0.697382)"/>
       <use xlink:href="#CMSS17-32" transform="translate(10.983318 -34.355253)scale(0.697382)"/>
       <path d="M 0 22.914133 
L 54.757018 22.914133 
L 54.757018 26.899083 
L 0 26.899083 
L 0 22.914133 
z
"/>
      </g>
     </g>
    </g>
    <g id="text_10">
     <!-- Voltage -->
     <g style="fill: #bcbdd0" transform="translate(21.26218 146.205762)rotate(-90)scale(0.12 -0.12)">
      <defs>
       <path id="CMSS17-56" d="M 3910 4416 
L 3411 4416 
L 2304 1361 
C 2272 1272 2074 687 2035 484 
L 2029 484 
C 1978 725 1773 1291 1664 1603 
L 922 3670 
L 646 4416 
L 83 4416 
L 1715 0 
L 2278 0 
L 3910 4416 
z
" transform="scale(0.015625)"/>
       <path id="CMSS17-6f" d="M 2829 1356 
C 2829 2175 2221 2816 1504 2816 
C 768 2816 173 2156 173 1356 
C 173 544 787 -64 1498 -64 
C 2227 -64 2829 563 2829 1356 
z
M 1504 339 
C 1050 339 659 710 659 1407 
C 659 2150 1114 2425 1498 2425 
C 1914 2425 2342 2124 2342 1407 
C 2342 684 1926 339 1504 339 
z
" transform="scale(0.015625)"/>
       <path id="CMSS17-6c" d="M 947 4416 
L 474 4416 
L 474 0 
L 947 0 
L 947 4416 
z
" transform="scale(0.015625)"/>
       <path id="CMSS17-74" d="M 1069 2380 
L 1901 2380 
L 1901 2752 
L 1069 2752 
L 1069 3520 
L 614 3520 
L 614 2752 
L 109 2752 
L 109 2380 
L 602 2380 
L 602 751 
C 602 384 685 -64 1107 -64 
C 1427 -64 1722 25 2003 172 
L 1901 551 
C 1747 416 1562 339 1363 339 
C 1082 339 1069 699 1069 860 
L 1069 2380 
z
" transform="scale(0.015625)"/>
       <path id="CMSS17-61" d="M 2406 1789 
C 2406 2399 1978 2816 1402 2816 
C 1120 2816 813 2764 461 2559 
L 499 2133 
C 659 2250 934 2438 1395 2438 
C 1722 2438 1920 2185 1920 1782 
L 1920 1536 
C 896 1504 256 1209 256 711 
C 256 452 416 -64 947 -64 
C 1043 -64 1562 -52 1933 224 
L 1933 -13 
L 2406 -13 
L 2406 1789 
z
M 1920 824 
C 1920 711 1920 559 1728 446 
C 1562 339 1350 326 1261 326 
C 941 326 723 503 723 723 
C 723 1165 1722 1209 1920 1216 
L 1920 824 
z
" transform="scale(0.015625)"/>
       <path id="CMSS17-67" d="M 2848 2816 
C 2483 2809 2170 2739 1914 2617 
C 1702 2783 1485 2816 1338 2816 
C 781 2816 358 2356 358 1824 
C 358 1481 550 1222 563 1209 
C 448 1049 384 876 384 684 
C 384 460 474 300 544 211 
C 211 6 166 -308 166 -429 
C 166 -896 749 -1280 1498 -1280 
C 2253 -1280 2835 -896 2835 -423 
C 2835 460 1856 467 1587 467 
L 1069 467 
C 973 467 717 467 717 793 
C 717 921 774 1004 781 1011 
C 877 940 1075 832 1338 832 
C 1869 832 2310 1279 2310 1824 
C 2310 2128 2170 2349 2112 2425 
L 2131 2425 
C 2150 2425 2419 2444 2515 2444 
C 2720 2444 2739 2438 2918 2419 
L 2848 2816 
z
M 1338 1184 
C 1120 1184 813 1317 813 1824 
C 813 2375 1165 2463 1331 2463 
C 1549 2463 1856 2330 1856 1824 
C 1856 1272 1504 1184 1338 1184 
z
M 1581 0 
C 1734 0 2381 0 2381 -436 
C 2381 -711 1984 -928 1504 -928 
C 1018 -928 621 -717 621 -429 
C 621 -397 621 0 1062 0 
L 1581 0 
z
" transform="scale(0.015625)"/>
      </defs>
      <use xlink:href="#CMSS17-56" transform="scale(0.996264)"/>
      <use xlink:href="#CMSS17-6f" transform="translate(59.615401 0)scale(0.996264)"/>
      <use xlink:href="#CMSS17-6c" transform="translate(106.459025 0)scale(0.996264)"/>
      <use xlink:href="#CMSS17-74" transform="translate(128.639748 0)scale(0.996264)"/>
      <use xlink:href="#CMSS17-61" transform="translate(162.471314 0)scale(0.996264)"/>
      <use xlink:href="#CMSS17-67" transform="translate(207.393235 0)scale(0.996264)"/>
      <use xlink:href="#CMSS17-65" transform="translate(254.236858 0)scale(0.996264)"/>
     </g>
    </g>
   </g>
   <g id="line2d_9">
    <path d="M 48.520423 242.548665 
L 141.122525 242.548665 
L 141.233692 70.357166 
L 295.533474 70.357166 
L 295.644641 242.548665 
L 419.04 242.548665 
L 419.04 242.548665 
" clip-path="url(#p94810845a1)" style="fill: none; stroke: #8dd3c7; stroke-width: 1.5; stroke-linecap: square"/>
   </g>
   <g id="patch_3">
    <path d="M 48.520423 242.548665 
L 48.520423 12.96 
" style="fill: none; stroke: #bcbdd0; stroke-width: 0.8; stroke-linejoin: miter; stroke-linecap: square"/>
   </g>
   <g id="patch_4">
    <path d="M 48.520423 242.548665 
L 419.04 242.548665 
" style="fill: none; stroke: #bcbdd0; stroke-width: 0.8; stroke-linejoin: miter; stroke-linecap: square"/>
   </g>
  </g>
 </g>
 <defs>
  <clipPath id="p94810845a1">
   <rect x="48.520423" y="12.96" width="370.519577" height="229.588665"/>
  </clipPath>
 </defs>
</svg>
