<?xml version="1.0" encoding="UTF-8" standalone="no"?>
<!DOCTYPE svg PUBLIC "-//W3C//DTD SVG 1.1//EN" "http://www.w3.org/Graphics/SVG/1.1/DTD/svg11.dtd">
<svg width="100%" height="100%" viewBox="0 0 119 119" version="1.1" xmlns="http://www.w3.org/2000/svg" xmlns:xlink="http://www.w3.org/1999/xlink" xml:space="preserve" xmlns:serif="http://www.serif.com/" style="fill-rule:evenodd;clip-rule:evenodd;stroke-linejoin:round;stroke-miterlimit:2;">
    <g transform="matrix(1,0,0,1,-0.924422,1.30346)">
        <path d="M58.888,33.241C43.626,17.022 15.956,22.472 7.55,38.891C-7.424,68.137 18.495,84.625 18.495,84.625L1.466,84.625C1.466,84.625 32.746,90.515 30.644,89.561C1.242,76.226 11.462,48.148 19.489,38.891C26.101,31.264 44.575,23.717 58.888,33.241Z" style="fill:rgb(3,124,214);"/>
        <g transform="matrix(-0.999758,-0.0219826,0.0219826,-0.999758,89.4248,104.752)">
            <path d="M58.096,3.332C32.736,-6.932 11.629,8.829 6.166,18.836C-9.58,47.675 8.846,68.796 8.846,68.796L-28.071,59.393C-28.071,59.393 32.239,91.23 30.644,89.561C0.256,57.767 10.164,32.007 22.68,18.473C29.532,11.062 35.76,4.101 58.096,3.332Z" style="fill:rgb(3,124,214);"/>
        </g>
        <path d="M32.533,41.14C50.356,32.882 60.621,38.783 66.36,44.644C75.883,54.37 72.755,70.332 65.16,78.195C69.319,65.73 65.889,56.636 60.631,49.916C55.873,43.836 48.733,39.646 32.533,41.14Z" style="fill:rgb(3,124,214);"/>
        <g transform="matrix(1.22414,0,0,1.22414,-6.10041,-10.695)">
            <circle cx="27.756" cy="45.176" r="3.002" style="fill:rgb(3,124,214);"/>
        </g>
        <path d="M43.178,46.315C53.117,46.315 61.187,54.385 61.187,64.324C61.187,74.264 53.117,82.333 43.178,82.333C33.238,82.333 25.168,74.264 25.168,64.324C25.168,54.385 33.238,46.315 43.178,46.315ZM37.934,51.49C37.934,51.49 26.453,54.621 28.638,66.811C29.362,70.849 34.829,77.948 41.936,75.778C47.085,74.206 46.757,70.688 46.679,69.151C46.451,64.713 42.43,64.068 40.967,63.853C36.895,63.257 35.623,60.111 35.427,59.039C35.125,57.38 35.639,55.082 37.934,51.49Z" style="fill:rgb(3,124,214);"/>
    </g>
</svg>
